<?xml version="1.0" encoding="utf-8"?>
<!-- Generator: Adobe Illustrator 25.3.1, SVG Export Plug-In . SVG Version: 6.00 Build 0)  -->
<svg version="1.1" id="Слой_1" xmlns="http://www.w3.org/2000/svg" xmlns:xlink="http://www.w3.org/1999/xlink" x="0px" y="0px"
	 viewBox="0 0 255.12 187.09" style="enable-background:new 0 0 255.12 187.09;" xml:space="preserve">
<style type="text/css">
	.st0{fill-rule:evenodd;clip-rule:evenodd;fill:#717071;}
	.st1{fill-rule:evenodd;clip-rule:evenodd;fill:#261F1C;}
	.st2{fill-rule:evenodd;clip-rule:evenodd;fill:#DCDCDC;}
	.st3{fill:#261F1C;}
</style>
<g>
	<polygon class="st0" points="255.12,158.2 165.79,100.36 136.86,131.45 178.18,158.2 	"/>
	<polygon class="st1" points="241.53,0 199.76,0 99.78,107.44 125.84,124.32 154.78,93.23 	"/>
	<g>
		<polygon class="st2" points="99.98,0 99.78,0 99.78,0.22 		"/>
		<polygon class="st2" points="99.78,45.1 99.78,57.62 99.78,107.44 141.75,62.17 141.75,0 		"/>
	</g>
	<polygon class="st0" points="115.09,132.33 79.4,109.22 54.88,93.35 26.06,124.32 0,107.44 78.1,158.2 91.02,158.2 155.04,158.2 	
		"/>
	<polygon class="st1" points="141.75,0 99.98,0 0,107.44 26.06,124.32 54.99,93.23 	"/>
	<path class="st3" d="M242.22,172.41v5.32h8.85v2.78h-8.85v6.32h-3.62v-17.21h12.76v2.78H242.22z M217.94,172.41v5.32h8.85v2.78
		h-8.85v6.32h-3.62v-17.21h12.76v2.78H217.94z M198.96,178.16c0-1.86-0.44-3.31-1.32-4.36c-0.88-1.05-2.12-1.58-3.72-1.58
		c-1.62,0-2.87,0.52-3.76,1.57c-0.88,1.05-1.33,2.51-1.33,4.38c0,1.89,0.45,3.38,1.36,4.46c0.91,1.09,2.14,1.63,3.7,1.63
		c1.62,0,2.87-0.53,3.75-1.59C198.52,181.61,198.96,180.1,198.96,178.16z M202.65,178.16c0,1.79-0.36,3.37-1.07,4.73
		c-0.71,1.36-1.73,2.4-3.06,3.12c-1.32,0.72-2.87,1.08-4.64,1.08c-2.72,0-4.85-0.8-6.39-2.39c-1.55-1.59-2.32-3.77-2.32-6.54
		c0-2.76,0.77-4.91,2.31-6.46c1.54-1.55,3.68-2.32,6.42-2.32c2.74,0,4.88,0.78,6.43,2.34C201.88,173.28,202.65,175.43,202.65,178.16
		z M170.71,186.84l-6.21-7.9l-2.13,1.63v6.28h-3.62v-17.21h3.62v7.8l7.79-7.8h4.22l-7.39,7.28l7.99,9.93H170.71z M143.63,175.14
		c0-1.81-1.07-2.71-3.22-2.71h-3.74v5.59h3.84c1,0,1.77-0.25,2.3-0.74C143.36,176.78,143.63,176.07,143.63,175.14z M147.27,175.08
		c0,1.11-0.26,2.1-0.76,2.97c-0.51,0.88-1.23,1.55-2.18,2.03c-0.94,0.48-2.07,0.71-3.37,0.71h-4.3v6.05h-3.62v-17.21h7.77
		c2.07,0,3.66,0.48,4.78,1.42C146.72,172,147.27,173.34,147.27,175.08z M113.35,172.28l-0.08,0.27c-0.08,0.3-0.18,0.63-0.29,1
		c-0.12,0.38-0.82,2.43-2.11,6.18h4.97l-1.71-4.95l-0.53-1.66L113.35,172.28z M118.18,186.84l-1.53-4.39h-6.59l-1.53,4.39h-3.62
		l6.31-17.21h4.27l6.29,17.21H118.18z M91.32,186.84l-4.35-6.85l-4.35,6.85H78.8l5.99-9.05l-5.49-8.16h3.83l3.84,6.08l3.84-6.08h3.8
		l-5.25,8.16l5.76,9.05H91.32z M60.57,172.28l-0.08,0.27c-0.08,0.3-0.18,0.63-0.29,1c-0.12,0.38-0.82,2.43-2.11,6.18h4.97
		l-1.71-4.95l-0.53-1.66L60.57,172.28z M65.4,186.84l-1.53-4.39h-6.59l-1.53,4.39h-3.62l6.31-17.21h4.27l6.29,17.21H65.4z
		 M34.79,184.25c2.18,0,3.7-1.09,4.55-3.27l3.16,1.18c-0.68,1.66-1.68,2.89-2.99,3.71c-1.32,0.81-2.89,1.21-4.72,1.21
		c-2.78,0-4.93-0.78-6.45-2.35c-1.52-1.57-2.28-3.76-2.28-6.58c0-2.82,0.73-4.99,2.2-6.51c1.47-1.51,3.59-2.27,6.37-2.27
		c2.03,0,3.68,0.4,4.96,1.21c1.27,0.81,2.17,2,2.69,3.57l-3.19,0.87c-0.27-0.86-0.8-1.55-1.59-2.06c-0.79-0.51-1.72-0.76-2.79-0.76
		c-1.63,0-2.88,0.5-3.73,1.51c-0.85,1.01-1.27,2.49-1.27,4.43c0,1.98,0.44,3.49,1.31,4.53C31.89,183.73,33.15,184.25,34.79,184.25z"
		/>
</g>
</svg>
